<svg version="1.2" xmlns="http://www.w3.org/2000/svg" viewBox="0 0 513 363" width="261" height="160"><style>.a{fill:#264653}.b{fill:#2a9d8f}</style><path class="a" d="m260.8 7c17.2 16.2 34 32 51.7 48.6 0-11.6 0-22.1 0-33 13.7 0 26.8 0 40.4 0 0.2 12.9 0.2 67.8 0.2 67.8 0 0 7.7 9.6 17.5 20.1-1 0.1-24.5 4.1-39.8 12.4-26.2-24-69.2-64.8-69.2-64.8 0 0-48.5 49.1-68.5 67.6-14.4-7.1-26.8-12.3-43.4-14.8 38.5-35.9 73.3-68.5 111.1-103.9z"/><path fill-rule="evenodd" class="a" d="m244.8 109.3h17.1v16.9h-17.1z"/><path fill-rule="evenodd" class="a" d="m264.7 109.3h17v16.9h-17z"/><path fill-rule="evenodd" class="a" d="m244.8 128.9h17.1v16.9h-17.1z"/><path fill-rule="evenodd" class="a" d="m264.7 128.9h17v16.9h-17z"/><path class="b" d="m119.5 150c-25 1.8-38.3 17.1-47.4 37.5-7.2 16.1-9 33.3-7.4 50.7 2.2 23.6 11.1 44.2 28.4 60.5 13.5 12.7 29.5 17.8 48.1 15.5 16.7-2 30.1-10.1 42-21 19.7-17.9 35.7-39 52-60 17.8-22.7 35.8-45.2 54.7-66.9 15.7-17.9 34.8-31.6 57-40.6 17.6-7.3 36.2-10.1 55.2-8.4 28.4 2.6 51.9 15 71.1 36 15.2 16.7 25.5 36 29.6 58.1 3.8 20 3.9 40.2-5.2 59-9.5 19.7-26 30.3-47.2 34.2-15 2.8-30 1.7-45.1-0.1-0.4-0.1-0.8-0.4-2.3-1 3.6-0.3 6.1-0.4 8.6-0.7 14.9-2 24.7-11 32.8-22.8 8-11.7 11.5-25 12.9-39 1.7-17-0.1-33.5-6.6-49.3-8-19.2-20.6-33.9-41-40.1-20.6-6.3-39.9-2-57.9 9.1-15.4 9.5-28 22.4-39.2 36.4-23.1 29.2-45.2 59.1-68.1 88.5-13.2 17-27.8 33-45.2 45.7-16.6 12.1-35.1 20.3-55.8 22.7-30.1 3.7-57.3-3.4-81-22.1-19.8-15.7-33.4-36.1-40.9-60.4-4.7-15.5-5.7-31.3-4.2-47.4 1.7-17.3 7.2-33.2 17.8-46.9 11.5-14.8 26.7-23.8 45-27.2 11.9-2.3 24-2.2 36-0.8 1.1 0 1.9 0.3 3.3 0.8z"/><path class="a" d="m292.3 239.5c9.9 14 19.2 28.2 29.5 41.8 12.9 17 27.8 32 46.8 42.4 13.8 7.6 28.8 10.3 44.5 9.6 18.4-0.7 35.3-5.4 50.4-16.1 10.7-7.7 19.8-16.9 28-27.5-1.2 2.3-2.2 4.6-3.4 6.9-1.3 2.4-2.5 5-4.2 7.2-17.8 26.8-42.2 43.7-74.3 49.3-26.6 4.5-51.1-1.2-74.5-13.6-20.1-10.6-36.5-25.7-51.6-42.4-5.5-6.1-10.9-12.2-16.6-18.2-1.6-1.8-2-3.2-0.3-5.3 8.8-11.3 17.3-22.8 25.7-34.1z"/><path class="a" d="m252.5 181.6c-2.8 3.4-5.3 6.4-8.1 9.8-5.8-4.6-11.4-9.2-17.3-13.7-26.3-20.4-54.8-36.7-88-42.7-22.3-4-44.5-2.6-65.6 6.7-11.5 5.1-21.1 12.6-29 22.2-0.5 0.7-1 1.2-1.5 1.9-0.2 0.2-0.5 0.3-1.5 0 3.7-4.9 6.8-10.2 10.9-14.8 17.4-18.6 38.5-30.1 64-33 33.1-3.7 62.6 5.8 89.9 23.8 16.9 11.3 31.8 25 46.2 39.8z"/></svg>
