<svg version="1.1" id="Layer_1" xmlns="http://www.w3.org/2000/svg" xmlns:xlink="http://www.w3.org/1999/xlink" x="0px" y="0px" width="200" height="50" style="enable-background:new 0 0 600 400;" xml:space="preserve" viewBox="134.28 394.1 1646.13 320.88"> <style type="text/css"> 	.st0{fill: #2a9d8f;} 	.st1{fill: #264653;} 	.st2{fill-rule:evenodd; clip-rule:evenodd; fill: #2a9d8f;} </style> <g> 	<path class="st0" d="M671.1,562.6c20.7-3.7,32-21.1,32-41.2c0-31.1-21.9-44.9-50.7-44.9h-56.7v145.8h38v-56.1h0.4l35.8,56.1H717 &#9;&#9;L671.1,562.6z M633.5,505.5h3.7c12.4,0,26.3,2.3,26.3,18.2c0,15.9-13.9,18.2-26.3,18.2h-3.7V505.5z"/> 	<path class="st0" d="M795.8,508.6v-32.1h-83.1v145.8h83.1v-32.1h-45.1v-25.1h42.8V533h-42.8v-24.4H795.8z"/> 	<path class="st0" d="M830.7,476.5h-41.3l61.4,145.8h29.4l62.4-145.8h-41.3L866,565.1L830.7,476.5z"/> 	<path class="st0" d="M1020.7,508.6v-32.1h-83.1v145.8h83.1v-32.1h-45.1v-25.1h42.8V533h-42.8v-24.4H1020.7z"/> 	<path class="st0" d="M1105.1,562.6c20.7-3.7,32-21.1,32-41.2c0-31.1-21.9-44.9-50.7-44.9h-56.7v145.8h38v-56.1h0.4l35.8,56.1h47.3 &#9;&#9;L1105.1,562.6z M1067.6,505.5h3.7c12.4,0,26.3,2.3,26.3,18.2c0,15.9-13.9,18.2-26.3,18.2h-3.7V505.5z"/> 	<path class="st0" d="M1242.1,484.7c-13-7.3-31-12-45.7-12c-29.2,0-50.4,19.3-50.4,48.9c0,28.2,15.7,34.4,39.5,41.2 &#9;&#9;c8.1,2.3,23,6,23,16.6c0,10.2-9.5,14.7-18.4,14.7c-13,0-24.2-6.8-33.7-15.1l-16.3,30.5c14.9,10.4,32.9,16.6,51.3,16.6 &#9;&#9;c14.7,0,30-4.1,41.4-13.7c11.6-9.9,15.1-24.7,15.1-39.2c0-23.6-15.7-33.8-36-39.8l-9.7-2.9c-6.6-2.1-16.8-5.4-16.8-13.9 &#9;&#9;c0-8.1,9.3-12.2,16.3-12.2c9.3,0,18.2,3.9,25.2,9.7L1242.1,484.7z"/> 	<path class="st0" d="M1334.7,508.6v-32.1h-83.1v145.8h83.1v-32.1h-45.1v-25.1h42.8V533h-42.8v-24.4H1334.7z"/> 	<path class="st0" d="M1395.5,622.3h38V574h21.5c33.1,0,51.7-15.1,51.7-49.5c0-33.4-21.7-47.9-53.1-47.9h-58.1V622.3z M1433.4,507.1 &#9;&#9;h6.4c14.7,0,27.3,0.2,27.3,18.6c0,17.8-13.6,17.8-27.3,17.8h-6.4V507.1z"/> 	<path class="st0" d="M1584.5,562.6c20.7-3.7,32-21.1,32-41.2c0-31.1-21.9-44.9-50.7-44.9H1509v145.8h38v-56.1h0.4l35.8,56.1h47.3 &#9;&#9;L1584.5,562.6z M1546.9,505.5h3.7c12.4,0,26.3,2.3,26.3,18.2c0,15.9-13.9,18.2-26.3,18.2h-3.7V505.5z"/> 	<path class="st0" d="M1699.6,471.7c-42,0-80.8,30.9-80.8,75c0,47.2,33.9,80.4,80.8,80.4c46.9,0,80.8-33.3,80.8-80.4 &#9;&#9;C1780.3,502.6,1741.6,471.7,1699.6,471.7z M1699.6,508.4c22.7,0,41.3,18.4,41.3,38.5c0,25.1-18.6,43.5-41.3,43.5 &#9;&#9;s-41.3-18.4-41.3-43.5C1658.3,526.8,1676.9,508.4,1699.6,508.4z"/> 	<path class="st1" d="M591.3,672h9.3l3-20.7h0.1L612,672h3.7l8.6-20.7h0.1L627,672h9.3l-5.4-35.9h-9.3l-7.7,19.2l-7.3-19.2h-9.2 &#9;&#9;L591.3,672z"/> 	<path class="st1" d="M711.8,634.9c-10.3,0-19.9,7.6-19.9,18.5c0,11.6,8.3,19.8,19.9,19.8c11.5,0,19.9-8.2,19.9-19.8 &#9;&#9;C731.6,642.5,722.1,634.9,711.8,634.9z M711.8,643.9c5.6,0,10.2,4.5,10.2,9.5c0,6.2-4.6,10.7-10.2,10.7c-5.6,0-10.2-4.5-10.2-10.7 &#9;&#9;C701.6,648.4,706.2,643.9,711.8,643.9z"/> 	<path class="st1" d="M807.9,657.3c5.1-0.9,7.9-5.2,7.9-10.2c0-7.7-5.4-11.1-12.5-11.1h-14V672h9.3v-13.8h0.1l8.8,13.8h11.6 &#9;&#9;L807.9,657.3z M798.7,643.2h0.9c3,0,6.5,0.6,6.5,4.5c0,3.9-3.4,4.5-6.5,4.5h-0.9V643.2z"/> 	<path class="st1" d="M889.4,644h7.7V636h-24.8v7.9h7.7v28h9.3V644z"/> 	<path class="st1" d="M971.2,651.9v7.3h7.6c-0.4,4.1-3.5,6.2-7.5,6.2c-6.1,0-9.5-5.7-9.5-11.2c0-5.5,3.2-11.3,9.3-11.3 &#9;&#9;c3.8,0,6.5,2.3,7.8,5.7l8.9-3.7c-3.1-6.7-8.8-10.1-16.2-10.1c-11.6,0-19.5,7.7-19.5,19.3c0,11.3,7.9,19,19.2,19 &#9;&#9;c6,0,11.3-2.1,14.8-7.1c3.2-4.5,3.6-9,3.7-14.2H971.2z"/> 	<path class="st1" d="M1069.4,665.7l2.3,6.2h10l-13.5-35.9H1058l-13.8,35.9h9.9l2.5-6.2H1069.4z M1066.9,658.6h-7.8l3.9-11.4h0.1 &#9;&#9;L1066.9,658.6z"/> 	<path class="st1" d="M1155.3,651.9v7.3h7.6c-0.4,4.1-3.5,6.2-7.5,6.2c-6.1,0-9.5-5.7-9.5-11.2c0-5.5,3.2-11.3,9.3-11.3 &#9;&#9;c3.8,0,6.5,2.3,7.8,5.7l8.9-3.7c-3.1-6.7-8.8-10.1-16.2-10.1c-11.6,0-19.5,7.7-19.5,19.3c0,11.3,7.9,19,19.2,19 &#9;&#9;c6,0,11.3-2.1,14.8-7.1c3.2-4.5,3.6-9,3.7-14.2H1155.3z"/> 	<path class="st1" d="M1252,644V636h-20.4V672h20.4v-7.9h-11.1v-6.2h10.5V650h-10.5v-6H1252z"/> 	<path class="st1" d="M1390.2,636h-9.3V672h20.5v-7.9h-11.2V636z"/> 	<path class="st1" d="M1475.9,634.9c-10.3,0-19.9,7.6-19.9,18.5c0,11.6,8.3,19.8,19.9,19.8s19.9-8.2,19.9-19.8 &#9;&#9;C1495.7,642.5,1486.2,634.9,1475.9,634.9z M1475.9,643.9c5.6,0,10.2,4.5,10.2,9.5c0,6.2-4.6,10.7-10.2,10.7s-10.2-4.5-10.2-10.7 &#9;&#9;C1465.7,648.4,1470.3,643.9,1475.9,643.9z"/> 	<path class="st1" d="M1575.5,665.7l2.3,6.2h10l-13.5-35.9H1564l-13.8,35.9h9.9l2.5-6.2H1575.5z M1572.9,658.6h-7.8l3.9-11.4h0.1 &#9;&#9;L1572.9,658.6z"/> 	<path class="st1" d="M1644,672h9.3v-22h0.1l17.1,22h9.3V636h-9.3v22h-0.1l-17.1-22h-9.3V672z"/> 	<path class="st1" d="M1762.9,638c-3.2-1.8-7.6-3-11.2-3c-7.2,0-12.4,4.8-12.4,12.1c0,7,3.9,8.5,9.7,10.2c2,0.6,5.7,1.5,5.7,4.1 &#9;&#9;c0,2.5-2.3,3.6-4.5,3.6c-3.2,0-6-1.7-8.3-3.7l-4,7.5c3.7,2.6,8.1,4.1,12.6,4.1c3.6,0,7.4-1,10.2-3.4c2.9-2.4,3.7-6.1,3.7-9.7 &#9;&#9;c0-5.8-3.9-8.3-8.9-9.8l-2.4-0.7c-1.6-0.5-4.1-1.3-4.1-3.4c0-2,2.3-3,4-3c2.3,0,4.5,1,6.2,2.4L1762.9,638z"/> 	<path class="st0" d="M359.3,394.1c15.9,14.9,31.4,29.5,47.7,44.8c0-10.7,0-20.4,0-30.4c12.6,0,24.7,0,37.3,0 &#9;&#9;c0.1,11.9,0.1,62.5,0.1,62.5s7.1,8.8,16.2,18.5c-0.9,0.1-22.6,3.8-36.7,11.5c-24.2-22.2-63.8-59.8-63.8-59.8s-44.8,45.3-63.2,62.3 &#9;&#9;c-13.3-6.5-24.7-11.3-40-13.6C292.4,456.8,324.5,426.7,359.3,394.1z"/> 	<path class="st2" d="M344.6,488.4h15.7v15.6h-15.7V488.4z"/> 	<path class="st2" d="M362.9,488.4h15.7v15.6h-15.7V488.4z"/> 	<path class="st2" d="M344.6,506.5h15.7v15.6h-15.7V506.5z"/> 	<path class="st2" d="M362.9,506.5h15.7v15.6h-15.7V506.5z"/> 	<path class="st1" d="M229,525.9c-23,1.7-35.3,15.8-43.7,34.6c-6.6,14.9-8.3,30.7-6.8,46.8c2,21.7,10.2,40.7,26.2,55.8 &#9;&#9;c12.4,11.7,27.2,16.4,44.3,14.3c15.4-1.9,27.8-9.4,38.8-19.4c18.1-16.5,32.9-36,47.9-55.3c16.4-21,33-41.7,50.5-61.7 &#9;&#9;c14.4-16.5,32.1-29.2,52.5-37.5c16.3-6.7,33.4-9.3,50.9-7.7c26.2,2.4,47.9,13.8,65.6,33.2c14,15.4,23.5,33.2,27.3,53.6 &#9;&#9;c3.5,18.4,3.6,37-4.8,54.4c-8.8,18.1-24,27.9-43.5,31.5c-13.9,2.6-27.7,1.6-41.6-0.1c-0.4-0.1-0.8-0.4-2.1-0.9 &#9;&#9;c3.3-0.3,5.6-0.4,7.9-0.7c13.7-1.8,22.8-10.1,30.2-21c7.4-10.8,10.6-23,11.9-35.9c1.6-15.7-0.1-30.9-6.1-45.5 &#9;&#9;c-7.3-17.7-19-31.3-37.8-37c-19-5.8-36.8-1.8-53.4,8.4c-14.2,8.8-25.8,20.7-36.1,33.6c-21.3,26.9-41.7,54.5-62.8,81.6 &#9;&#9;c-12.2,15.7-25.6,30.4-41.7,42.1c-15.3,11.2-32.3,18.7-51.4,21c-27.8,3.4-52.9-3.2-74.7-20.4c-18.3-14.5-30.8-33.3-37.7-55.7 &#9;&#9;c-4.4-14.3-5.3-28.9-3.9-43.7c1.6-16,6.6-30.6,16.4-43.3c10.6-13.6,24.6-21.9,41.5-25.1c11-2.1,22.1-2,33.2-0.7 &#9;&#9;C227,525.2,227.7,525.5,229,525.9z"/> 	<path class="st0" d="M388.4,608.5c9.1,12.9,17.7,26,27.2,38.5c11.9,15.7,25.6,29.5,43.1,39.1c12.8,7,26.6,9.5,41.1,8.9 &#9;&#9;c16.9-0.7,32.5-5,46.4-14.9c9.9-7.1,18.3-15.6,25.9-25.3c-1.1,2.1-2.1,4.2-3.2,6.3c-1.2,2.2-2.3,4.6-3.8,6.7 &#9;&#9;c-16.5,24.7-39,40.3-68.6,45.4c-24.5,4.2-47.1-1.1-68.7-12.5c-18.5-9.8-33.6-23.7-47.5-39.1c-5.1-5.6-10.1-11.3-15.3-16.8 &#9;&#9;c-1.5-1.7-1.9-2.9-0.3-4.9C372.8,629.5,380.6,618.9,388.4,608.5z"/> 	<path class="st0" d="M351.7,555.1c-2.6,3.1-4.9,5.9-7.5,9c-5.3-4.2-10.5-8.5-15.9-12.6c-24.3-18.8-50.6-33.9-81.2-39.4 &#9;&#9;c-20.6-3.7-41-2.4-60.5,6.2c-10.6,4.7-19.4,11.6-26.7,20.5c-0.5,0.6-0.9,1.1-1.4,1.7c-0.2,0.2-0.5,0.3-1.4,0 &#9;&#9;c3.4-4.5,6.3-9.4,10.1-13.6c16-17.2,35.5-27.8,59-30.5c30.5-3.4,57.7,5.4,82.9,22C324.7,528.8,338.4,541.4,351.7,555.1z"/> </g> </svg>
